<svg width="76" height="76" viewBox="0 0 76 76" fill="none" xmlns="http://www.w3.org/2000/svg">
<path d="M33.5469 40.375H55.8125C56.6323 40.375 57.2969 39.7104 57.2969 38.8906C57.2969 38.0708 56.6323 37.4062 55.8125 37.4062H33.5469C32.7271 37.4062 32.0625 38.0708 32.0625 38.8906C32.0625 39.7104 32.7271 40.375 33.5469 40.375Z" fill="#455DDC"/>
<path d="M33.5469 49.2812H60.2656C61.0854 49.2812 61.75 48.6167 61.75 47.7969C61.75 46.9771 61.0854 46.3125 60.2656 46.3125H33.5469C32.7271 46.3125 32.0625 46.9771 32.0625 47.7969C32.0625 48.6167 32.7271 49.2812 33.5469 49.2812Z" fill="#455DDC"/>
<path d="M20.1875 0C18.6022 0 17.1113 0.617797 15.9895 1.73954C14.8678 2.86128 14.25 4.35219 14.25 5.9375V28.5H9.79688C7.34142 28.5 5.34375 30.4977 5.34375 32.9531V62.6406C5.34375 65.0961 7.34142 67.0938 9.79688 67.0938H31.3203C32.1401 67.0938 32.8047 66.4292 32.8047 65.6094C32.8047 64.7896 32.1401 64.125 31.3203 64.125H9.79688C8.97839 64.125 8.3125 63.4591 8.3125 62.6406V32.9531C8.3125 32.1346 8.97839 31.4688 9.79688 31.4688H14.25V43.3438C14.25 43.5033 14.2772 43.6662 14.3276 43.8176C14.3276 43.8176 18.7707 57.1465 18.7713 57.1483C18.7824 57.1631 19.083 58.1875 20.1875 58.1875H55.8125C56.6323 58.1875 57.2969 57.5229 57.2969 56.7031C57.2969 55.8833 56.6323 55.2188 55.8125 55.2188H22.2469L26.0474 43.8176C26.0959 43.6762 26.125 43.5104 26.125 43.3438V31.4688H66.2031C67.0216 31.4688 67.6875 32.1346 67.6875 32.9531V71.7421L56.6359 64.3744C56.392 64.2118 56.1055 64.125 55.8125 64.125H44.6797C43.8599 64.125 43.1953 64.7896 43.1953 65.6094C43.1953 66.4292 43.8599 67.0938 44.6797 67.0938H55.363L68.3485 75.7506C68.8046 76.0548 69.3902 76.0822 69.8724 75.8244C70.3549 75.5661 70.6562 75.0631 70.6562 74.5156V32.9531C70.6562 30.4977 68.6586 28.5 66.2031 28.5H26.125V5.9375C26.125 2.66356 23.4614 0 20.1875 0ZM17.2188 41.8594V16.3281H23.1562V41.8594H17.2188ZM22.5812 44.8281L20.1875 52.0091L17.7938 44.8281H22.5812ZM18.0887 3.83874C18.6498 3.2778 19.3951 2.96875 20.1875 2.96875C21.8245 2.96875 23.1562 4.30053 23.1562 5.9375V13.3594H17.2188V5.9375C17.2188 5.14514 17.5278 4.39984 18.0887 3.83874Z" fill="#455DDC"/>
<path d="M38 67.0938C38.8198 67.0938 39.4844 66.4292 39.4844 65.6094C39.4844 64.7896 38.8198 64.125 38 64.125C37.1802 64.125 36.5156 64.7896 36.5156 65.6094C36.5156 66.4292 37.1802 67.0938 38 67.0938Z" fill="#455DDC"/>
</svg>
