<svg width="68" height="68" viewBox="0 0 68 68" fill="none" xmlns="http://www.w3.org/2000/svg">
<path d="M65.25 21.375H67.5V16.875C67.4983 15.3837 66.9052 13.9539 65.8506 12.8994C64.7961 11.8449 63.3663 11.2517 61.875 11.25H23.625V9.00004H25.875C26.0975 9.00005 26.315 8.93407 26.5 8.81046C26.6851 8.68684 26.8293 8.51114 26.9144 8.30556C26.9996 8.09999 27.0218 7.87379 26.9784 7.65555C26.935 7.43732 26.8279 7.23686 26.6705 7.07953L19.9205 0.329525C19.8161 0.225053 19.692 0.142181 19.5555 0.0856411C19.419 0.0291009 19.2727 0 19.125 0C18.9773 0 18.831 0.0291009 18.6945 0.0856411C18.558 0.142181 18.4339 0.225053 18.3295 0.329525L11.5795 7.07953C11.4221 7.23686 11.315 7.43732 11.2716 7.65555C11.2282 7.87379 11.2504 8.09999 11.3356 8.30556C11.4207 8.51114 11.5649 8.68684 11.75 8.81046C11.935 8.93407 12.1525 9.00005 12.375 9.00004H14.625V11.25H10.125C8.63367 11.2517 7.2039 11.8449 6.14938 12.8994C5.09484 13.9539 4.50167 15.3837 4.5 16.875V39.375H6.75V16.875C6.75104 15.9803 7.10696 15.1224 7.73967 14.4897C8.37238 13.857 9.23021 13.5011 10.125 13.5H14.625V33.75H16.875V7.87504C16.875 7.57667 16.7565 7.29052 16.5455 7.07955C16.3345 6.86857 16.0484 6.75004 15.75 6.75004H15.0909L19.125 2.71593L23.1591 6.75004H22.5C22.2016 6.75004 21.9155 6.86857 21.7045 7.07955C21.4935 7.29052 21.375 7.57667 21.375 7.87504V34.875H23.625V13.5H61.875C62.7698 13.5011 63.6276 13.857 64.2603 14.4897C64.893 15.1224 65.249 15.9803 65.25 16.875V21.375ZM61.875 56.25H43.1371L45.8371 65.25H48.375V67.5H23.625V65.25H26.1629L27.6099 60.4266L29.7651 61.0735L28.512 65.25H43.4886L40.7886 56.25H32.625V54H61.875C62.7698 53.999 63.6276 53.6431 64.2603 53.0104C64.893 52.3777 65.249 51.5198 65.25 50.625V49.5H33.75V47.25H65.25V23.625H67.5V50.625C67.4983 52.1164 66.9052 53.5461 65.8506 54.6007C64.7961 55.6552 63.3663 56.2484 61.875 56.25ZM28.125 37.125V19.125H32.625V45H61.875V42.75H57.375V33.75C57.375 33.4517 57.2565 33.1655 57.0455 32.9545C56.8345 32.7436 56.5484 32.625 56.25 32.625H49.5C49.2016 32.625 48.9155 32.7436 48.7045 32.9545C48.4935 33.1655 48.375 33.4517 48.375 33.75V42.75H46.125V25.875C46.125 25.5767 46.0065 25.2905 45.7955 25.0795C45.5845 24.8686 45.2984 24.75 45 24.75H38.25C37.9516 24.75 37.6655 24.8686 37.4545 25.0795C37.2435 25.2905 37.125 25.5767 37.125 25.875V42.75H34.875V18C34.875 17.7017 34.7565 17.4155 34.5455 17.2045C34.3345 16.9936 34.0484 16.875 33.75 16.875H27C26.7016 16.875 26.4155 16.9936 26.2045 17.2045C25.9935 17.4155 25.875 17.7017 25.875 18V37.125H28.125ZM50.625 34.875H55.125V42.75H50.625V34.875ZM39.375 27H43.875V42.75H39.375V27ZM61.875 15.75V18H59.625V15.75H61.875ZM55.125 15.75H57.375V18H55.125V15.75ZM52.875 15.75V18H50.625V15.75H52.875ZM0.989014 61.7391C0.358185 62.3732 0.00282288 63.2305 0 64.125C-0.000404358 64.5684 0.0866089 65.0074 0.256073 65.4171C0.425545 65.8267 0.674126 66.199 0.98761 66.5124C1.30109 66.8259 1.6733 67.0745 2.08296 67.244C2.49261 67.4134 2.93167 67.5005 3.375 67.5C4.26849 67.4922 5.124 67.1376 5.76099 66.511L11.1459 61.1262C13.9785 62.7971 17.3232 63.3775 20.553 62.7586C23.7829 62.1397 26.6761 60.364 28.6903 57.7643C30.7045 55.1647 31.7013 51.9197 31.4939 48.6376C31.2865 45.3555 29.8891 42.2617 27.5637 39.9363C25.2383 37.6109 22.1446 36.2135 18.8625 36.0061C15.5804 35.7987 12.3353 36.7955 9.7357 38.8097C7.13606 40.8239 5.36033 43.7171 4.74142 46.947C4.12251 50.1769 4.70292 53.5216 6.37383 56.3541L0.989014 61.7391ZM6.75 49.5C6.75 47.275 7.4098 45.0999 8.64597 43.2499C9.88213 41.3998 11.6391 39.9579 13.6948 39.1064C15.7505 38.2549 18.0125 38.0321 20.1948 38.4662C22.3771 38.9003 24.3816 39.9718 25.955 41.5451C27.5283 43.1184 28.5998 45.123 29.0338 47.3053C29.4679 49.4876 29.2451 51.7496 28.3936 53.8052C27.5422 55.8609 26.1002 57.6179 24.2502 58.8541C22.4001 60.0902 20.225 60.75 18 60.75C15.0174 60.7467 12.1578 59.5603 10.0488 57.4513C7.93974 55.3422 6.75339 52.4827 6.75 49.5ZM2.58018 63.3302L7.69711 58.213C8.18237 58.7859 8.71415 59.3177 9.28701 59.8029L4.16982 64.9199C4.06649 65.0287 3.94242 65.1157 3.80493 65.1758C3.66743 65.236 3.51929 65.2679 3.36924 65.2699C3.21919 65.2718 3.07027 65.2437 2.93126 65.1872C2.79224 65.1307 2.66596 65.0469 2.55984 64.9408C2.45374 64.8346 2.36995 64.7084 2.31342 64.5694C2.2569 64.4303 2.22878 64.2814 2.23073 64.1314C2.23268 63.9813 2.26465 63.8332 2.32477 63.6957C2.38488 63.5582 2.47192 63.4341 2.58075 63.3308L2.58018 63.3302ZM9 49.5C9 51.2801 9.52784 53.0201 10.5168 54.5002C11.5057 55.9802 12.9113 57.1338 14.5559 57.815C16.2004 58.4961 18.01 58.6744 19.7558 58.3271C21.5016 57.9798 23.1053 57.1227 24.364 55.864C25.6226 54.6053 26.4798 53.0017 26.8271 51.2559C27.1743 49.51 26.9961 47.7004 26.3149 46.0559C25.6337 44.4114 24.4802 43.0057 23.0001 42.0168C21.5201 41.0279 19.78 40.5 18 40.5C15.6139 40.5027 13.3262 41.4518 11.639 43.139C9.95175 44.8263 9.00268 47.1139 9 49.5ZM11.25 49.5C11.25 48.165 11.6459 46.86 12.3876 45.7499C13.1293 44.6399 14.1835 43.7747 15.4169 43.2639C16.6503 42.753 18.0075 42.6193 19.3169 42.8797C20.6262 43.1402 21.829 43.7831 22.773 44.7271C23.717 45.6711 24.3599 46.8738 24.6203 48.1832C24.8808 49.4926 24.7471 50.8498 24.2362 52.0832C23.7253 53.3166 22.8601 54.3708 21.7501 55.1125C20.6401 55.8542 19.335 56.25 18 56.25C16.2104 56.2481 14.4947 55.5363 13.2292 54.2708C11.9638 53.0054 11.252 51.2896 11.25 49.5ZM22.5 49.5H20.25C20.2493 48.9035 20.012 48.3316 19.5902 47.9098C19.1684 47.488 18.5965 47.2508 18 47.25V45C19.1931 45.0014 20.3369 45.4759 21.1805 46.3195C22.0241 47.1632 22.4987 48.307 22.5 49.5ZM7.875 6.75004H5.625C5.62697 4.96043 6.33876 3.24469 7.60421 1.97925C8.86965 0.713806 10.5854 0.0020138 12.375 4.10378e-05V2.25004C11.1819 2.25138 10.0381 2.72592 9.1945 3.56954C8.35088 4.41316 7.87634 5.55698 7.875 6.75004Z" fill="#455DDC"/>
</svg>
