<svg width="70" height="70" viewBox="0 0 70 70" fill="none" xmlns="http://www.w3.org/2000/svg">
<path d="M65.8 8.4H60.9V4.2C60.9 3.08609 60.4575 2.0178 59.6698 1.23015C58.8822 0.442499 57.8139 0 56.7 0H12.6C11.4861 0 10.4178 0.442499 9.63015 1.23015C8.8425 2.0178 8.4 3.08609 8.4 4.2V42H4.2C3.08609 42 2.0178 42.4425 1.23015 43.2302C0.442499 44.0178 0 45.0861 0 46.2V57.4C0 58.5139 0.442499 59.5822 1.23015 60.3698C2.0178 61.1575 3.08609 61.6 4.2 61.6H8.4V65.8C8.4 66.9139 8.8425 67.9822 9.63015 68.7698C10.4178 69.5575 11.4861 70 12.6 70H56.7C57.8139 70 58.8822 69.5575 59.6698 68.7698C60.4575 67.9822 60.9 66.9139 60.9 65.8V36.4H65.8C66.9139 36.4 67.9822 35.9575 68.7698 35.1698C69.5575 34.3822 70 33.3139 70 32.2V12.6C70 11.4861 69.5575 10.4178 68.7698 9.63015C67.9822 8.8425 66.9139 8.4 65.8 8.4ZM2.8 57.4V46.2C2.8 45.8287 2.9475 45.4726 3.21005 45.21C3.4726 44.9475 3.8287 44.8 4.2 44.8H23.8C24.1713 44.8 24.5274 44.9475 24.7899 45.21C25.0525 45.4726 25.2 45.8287 25.2 46.2V57.4C25.2 57.7713 25.0525 58.1274 24.7899 58.3899C24.5274 58.6525 24.1713 58.8 23.8 58.8H4.2C3.8287 58.8 3.4726 58.6525 3.21005 58.3899C2.9475 58.1274 2.8 57.7713 2.8 57.4ZM58.1 65.8C58.1 66.1713 57.9525 66.5274 57.6899 66.7899C57.4274 67.0525 57.0713 67.2 56.7 67.2H12.6C12.2287 67.2 11.8726 67.0525 11.6101 66.7899C11.3475 66.5274 11.2 66.1713 11.2 65.8V61.6H23.8C24.9139 61.6 25.9822 61.1575 26.7698 60.3698C27.5575 59.5822 28 58.5139 28 57.4V46.2C28 45.0861 27.5575 44.0178 26.7698 43.2302C25.9822 42.4425 24.9139 42 23.8 42H11.2V4.2C11.2 3.8287 11.3475 3.4726 11.6101 3.21005C11.8726 2.9475 12.2287 2.8 12.6 2.8H56.7C57.0713 2.8 57.4274 2.9475 57.6899 3.21005C57.9525 3.4726 58.1 3.8287 58.1 4.2V8.4H43.4C42.2861 8.4 41.2178 8.8425 40.4301 9.63015C39.6425 10.4178 39.2 11.4861 39.2 12.6V32.2C39.2 33.3139 39.6425 34.3822 40.4301 35.1698C41.2178 35.9575 42.2861 36.4 43.4 36.4H58.1V65.8ZM67.2 32.2C67.2 32.5713 67.0525 32.9274 66.7899 33.1899C66.5274 33.4525 66.1713 33.6 65.8 33.6H43.4C43.0287 33.6 42.6726 33.4525 42.41 33.1899C42.1475 32.9274 42 32.5713 42 32.2V12.6C42 12.2287 42.1475 11.8726 42.41 11.6101C42.6726 11.3475 43.0287 11.2 43.4 11.2H65.8C66.1713 11.2 66.5274 11.3475 66.7899 11.6101C67.0525 11.8726 67.2 12.2287 67.2 12.6V32.2ZM16.8 14C16.8 13.6287 16.9475 13.2726 17.2101 13.0101C17.4726 12.7475 17.8287 12.6 18.2 12.6H33.6C33.9713 12.6 34.3274 12.7475 34.59 13.0101C34.8525 13.2726 35 13.6287 35 14C35 14.3713 34.8525 14.7274 34.59 14.9899C34.3274 15.2525 33.9713 15.4 33.6 15.4H18.2C17.8287 15.4 17.4726 15.2525 17.2101 14.9899C16.9475 14.7274 16.8 14.3713 16.8 14ZM16.8 19.6C16.8 19.2287 16.9475 18.8726 17.2101 18.6101C17.4726 18.3475 17.8287 18.2 18.2 18.2H33.6C33.9713 18.2 34.3274 18.3475 34.59 18.6101C34.8525 18.8726 35 19.2287 35 19.6C35 19.9713 34.8525 20.3274 34.59 20.5899C34.3274 20.8525 33.9713 21 33.6 21H18.2C17.8287 21 17.4726 20.8525 17.2101 20.5899C16.9475 20.3274 16.8 19.9713 16.8 19.6ZM16.8 25.2C16.8 24.8287 16.9475 24.4726 17.2101 24.21C17.4726 23.9475 17.8287 23.8 18.2 23.8H33.6C33.9713 23.8 34.3274 23.9475 34.59 24.21C34.8525 24.4726 35 24.8287 35 25.2C35 25.5713 34.8525 25.9274 34.59 26.19C34.3274 26.4525 33.9713 26.6 33.6 26.6H18.2C17.8287 26.6 17.4726 26.4525 17.2101 26.19C16.9475 25.9274 16.8 25.5713 16.8 25.2ZM33.6 32.2H18.2C17.8287 32.2 17.4726 32.0525 17.2101 31.7899C16.9475 31.5274 16.8 31.1713 16.8 30.8C16.8 30.4287 16.9475 30.0726 17.2101 29.81C17.4726 29.5475 17.8287 29.4 18.2 29.4H33.6C33.9713 29.4 34.3274 29.5475 34.59 29.81C34.8525 30.0726 35 30.4287 35 30.8C35 31.1713 34.8525 31.5274 34.59 31.7899C34.3274 32.0525 33.9713 32.2 33.6 32.2ZM61.6 19.6C61.6 19.9713 61.4525 20.3274 61.1899 20.5899C60.9274 20.8525 60.5713 21 60.2 21H49C48.6287 21 48.2726 20.8525 48.01 20.5899C47.7475 20.3274 47.6 19.9713 47.6 19.6C47.6 19.2287 47.7475 18.8726 48.01 18.6101C48.2726 18.3475 48.6287 18.2 49 18.2H60.2C60.5713 18.2 60.9274 18.3475 61.1899 18.6101C61.4525 18.8726 61.6 19.2287 61.6 19.6ZM57.4 25.2C57.4 25.5713 57.2525 25.9274 56.9899 26.19C56.7274 26.4525 56.3713 26.6 56 26.6H49C48.6287 26.6 48.2726 26.4525 48.01 26.19C47.7475 25.9274 47.6 25.5713 47.6 25.2C47.6 24.8287 47.7475 24.4726 48.01 24.21C48.2726 23.9475 48.6287 23.8 49 23.8H56C56.3713 23.8 56.7274 23.9475 56.9899 24.21C57.2525 24.4726 57.4 24.8287 57.4 25.2ZM7 49C7 48.6287 7.1475 48.2726 7.41005 48.01C7.6726 47.7475 8.0287 47.6 8.4 47.6H19.6C19.9713 47.6 20.3274 47.7475 20.59 48.01C20.8525 48.2726 21 48.6287 21 49C21 49.3713 20.8525 49.7274 20.59 49.9899C20.3274 50.2525 19.9713 50.4 19.6 50.4H8.4C8.0287 50.4 7.6726 50.2525 7.41005 49.9899C7.1475 49.7274 7 49.3713 7 49ZM14 56H8.4C8.0287 56 7.6726 55.8525 7.41005 55.59C7.1475 55.3274 7 54.9713 7 54.6C7 54.2287 7.1475 53.8726 7.41005 53.6101C7.6726 53.3475 8.0287 53.2 8.4 53.2H14C14.3713 53.2 14.7274 53.3475 14.9899 53.6101C15.2525 53.8726 15.4 54.2287 15.4 54.6C15.4 54.9713 15.2525 55.3274 14.9899 55.59C14.7274 55.8525 14.3713 56 14 56Z" fill="#455DDC"/>
<path d="M51.0992 42H33.5992C33.2279 42 32.8718 42.1475 32.6093 42.41C32.3467 42.6726 32.1992 43.0287 32.1992 43.4V60.2C32.1992 60.5713 32.3467 60.9274 32.6093 61.19C32.8718 61.4525 33.2279 61.6 33.5992 61.6H51.0992C51.4705 61.6 51.8266 61.4525 52.0892 61.19C52.3517 60.9274 52.4992 60.5713 52.4992 60.2V43.4C52.4992 43.0287 52.3517 42.6726 52.0892 42.41C51.8266 42.1475 51.4705 42 51.0992 42ZM40.3332 51.8L34.9992 56.952V46.648L40.3332 51.8ZM37.1132 44.8H47.5992L42.3632 49.854L37.1132 44.8ZM42.3492 53.746L47.5992 58.8H37.1132L42.3492 53.746ZM44.3652 51.8L49.6992 46.648V56.952L44.3652 51.8Z" fill="#455DDC"/>
</svg>
